<?xml version="1.0" encoding="utf-8"?>
<!-- Generator: Adobe Illustrator 25.1.0, SVG Export Plug-In . SVG Version: 6.00 Build 0)  -->
<svg version="1.0" id="Layer_1" xmlns="http://www.w3.org/2000/svg" xmlns:xlink="http://www.w3.org/1999/xlink" x="0px" y="0px"
	 viewBox="0 0 280 300" enable-background="new 0 0 280 300" xml:space="preserve">
<g>
</g>
<g>
	<path fill="#F7DF1E" d="M32.86,42.86h214.29v214.29H32.86V42.86z"/>
	<path d="M89.2,221.93l16.4-9.92c3.16,5.61,6.04,10.36,12.94,10.36c6.62,0,10.79-2.59,10.79-12.66v-68.47h20.14v68.75
		c0,20.86-12.23,30.35-30.06,30.35C103.3,240.34,93.95,232,89.2,221.93"/>
	<path d="M160.41,219.77l16.4-9.49c4.32,7.05,9.93,12.23,19.85,12.23c8.34,0,13.66-4.17,13.66-9.93c0-6.9-5.47-9.35-14.67-13.38
		l-5.03-2.16c-14.53-6.18-24.17-13.95-24.17-30.35c0-15.1,11.51-26.61,29.49-26.61c12.8,0,22.01,4.46,28.62,16.11l-15.68,10.07
		c-3.45-6.18-7.19-8.63-12.94-8.63c-5.9,0-9.64,3.74-9.64,8.63c0,6.04,3.74,8.49,12.37,12.23l5.03,2.16
		c17.12,7.34,26.76,14.82,26.76,31.64c0,18.13-14.24,28.05-33.37,28.05C178.39,240.34,166.31,231.42,160.41,219.77"/>
</g>
</svg>
