<?xml version="1.0" encoding="utf-8"?>
<!-- Generator: Adobe Illustrator 24.2.0, SVG Export Plug-In . SVG Version: 6.00 Build 0)  -->
<svg version="1.1" id="Layer_1" xmlns="http://www.w3.org/2000/svg" xmlns:xlink="http://www.w3.org/1999/xlink" x="0px" y="0px"
	 viewBox="0 0 1000 1000" style="enable-background:new 0 0 1000 1000;" xml:space="preserve">
<style type="text/css">
	.st0{fill:#F6DF19;}
	.st1{fill:#010101;}
</style>
<g>
	<path class="st0" d="M139,139H861V861H139V139z"/>
	<path class="st1" d="M328.8,742.4l55.3-33.4c10.7,18.9,20.4,34.9,43.6,34.9c22.3,0,36.4-8.7,36.4-42.6V470.5h67.9v231.7
		c0,70.3-41.2,102.3-101.3,102.3C376.3,804.4,344.8,776.3,328.8,742.4 M568.8,735.1l55.3-32c14.5,23.8,33.5,41.2,66.9,41.2
		c28.1,0,46-14.1,46-33.4c0-23.3-18.4-31.5-49.4-45.1l-17-7.3c-49-20.8-81.4-47-81.4-102.3c0-50.9,38.8-89.7,99.4-89.7
		c43.1,0,74.2,15,96.5,54.3l-52.8,33.9c-11.6-20.8-24.2-29.1-43.6-29.1c-19.9,0-32.5,12.6-32.5,29.1c0,20.4,12.6,28.6,41.7,41.2
		l17,7.3c57.7,24.7,90.2,49.9,90.2,106.6c0,61.1-48,94.5-112.5,94.5C629.4,804.4,588.6,774.4,568.8,735.1"/>
</g>
</svg>
