<?xml version="1.0" encoding="utf-8"?>
<!-- Generator: Adobe Illustrator 26.0.1, SVG Export Plug-In . SVG Version: 6.00 Build 0)  -->
<svg version="1.1" id="Layer_1" xmlns="http://www.w3.org/2000/svg" xmlns:xlink="http://www.w3.org/1999/xlink" x="0px" y="0px"
	 viewBox="0 0 256 180.8" style="enable-background:new 0 0 256 180.8;" xml:space="preserve">
<style type="text/css">
	.st0{fill:#36C9FD;}
</style>
<g transform="translate(1.4065934065934016 1.4065934065934016) scale(2.81 2.81)">
	<path class="st0" d="M79.5,23.5c0-0.6,0.4-1,1-1H89c0.6,0,1,0.4,1,1s-0.4,1-1,1h-8.5C79.9,24.5,79.5,24.1,79.5,23.5z"/>
	<path class="st0" d="M30.5,63.2L0.7,33.4C0.2,32.9,0,32.3,0,31.7c0-0.7,0.2-1.3,0.7-1.8L30.5,0.2c0.9-0.9,2.4-0.9,3.3,0l9.6,9.6
		c0.9,0.9,0.9,2.4,0,3.3l-9.4,9.4h37.7c0.6,0,1,0.4,1,1s-0.4,1-1,1H31.5c-0.4,0-0.8-0.2-0.9-0.6c-0.2-0.4-0.1-0.8,0.2-1.1L42,11.7
		c0.1-0.1,0.1-0.4,0-0.5l-9.6-9.6c-0.2-0.2-0.3-0.2-0.5,0L2.1,31.4C2,31.4,2,31.6,2,31.7c0,0.1,0,0.2,0.1,0.3l29.8,29.8
		c0.1,0.1,0.4,0.1,0.5,0l9.6-9.6c0.1-0.1,0.1-0.4,0-0.5L30.8,40.5c-0.3-0.3-0.4-0.7-0.2-1.1c0.2-0.4,0.5-0.6,0.9-0.6h29.3
		c0.6,0,1,0.4,1,1s-0.4,1-1,1H33.9l9.4,9.4c0.9,0.9,0.9,2.4,0,3.3l-9.6,9.6c-0.5,0.5-1.1,0.7-1.7,0.7C31.5,63.9,30.9,63.6,30.5,63.2
		z"/>
	<path class="st0" d="M68.1,39.8c0-0.6,0.4-1,1-1h8.3c0.6,0,1,0.4,1,1s-0.4,1-1,1h-8.3C68.6,40.8,68.1,40.4,68.1,39.8z"/>
	<path class="st0" d="M47.5,31.7c0-0.6,0.4-1,1-1h34.2c0.6,0,1,0.4,1,1s-0.4,1-1,1H48.5C47.9,32.7,47.5,32.2,47.5,31.7z"/>
</g>
</svg>
