<?xml version="1.0" encoding="utf-8"?>
<!-- Generator: Adobe Illustrator 26.0.1, SVG Export Plug-In . SVG Version: 6.00 Build 0)  -->
<svg version="1.1" id="Layer_1" xmlns="http://www.w3.org/2000/svg" xmlns:xlink="http://www.w3.org/1999/xlink" x="0px" y="0px"
	 viewBox="0 0 256 180.8" style="enable-background:new 0 0 256 180.8;" xml:space="preserve">
<style type="text/css">
	.st0{fill:#36C9FD;}
</style>
<g transform="translate(1.4065934065934016 1.4065934065934016) scale(2.81 2.81)">
	<path class="st0" d="M9.5,24.5H1c-0.6,0-1-0.4-1-1s0.4-1,1-1h8.5c0.6,0,1,0.4,1,1S10.1,24.5,9.5,24.5z"/>
	<path class="st0" d="M57.9,63.9c-0.6,0-1.2-0.2-1.7-0.7l-9.6-9.6c-0.9-0.9-0.9-2.4,0-3.3l9.4-9.4H29.2c-0.6,0-1-0.4-1-1s0.4-1,1-1
		h29.3c0.4,0,0.8,0.2,0.9,0.6c0.2,0.4,0.1,0.8-0.2,1.1L48,51.7c-0.1,0.1-0.1,0.4,0,0.5l9.6,9.6c0.1,0.1,0.4,0.1,0.5,0L87.9,32
		c0.1-0.1,0.1-0.2,0.1-0.3c0-0.2,0-0.3-0.1-0.3L58.1,1.6c-0.2-0.2-0.3-0.2-0.5,0L48,11.2c-0.1,0.1-0.1,0.4,0,0.5l11.2,11.2
		c0.3,0.3,0.4,0.7,0.2,1.1c-0.2,0.4-0.5,0.6-0.9,0.6H18.3c-0.6,0-1-0.4-1-1s0.4-1,1-1h37.7l-9.4-9.4c-0.9-0.9-0.9-2.4,0-3.3l9.6-9.6
		c0.9-0.9,2.4-0.9,3.3,0l29.8,29.8c0.5,0.5,0.7,1.1,0.7,1.8c0,0.6-0.2,1.2-0.7,1.7L59.5,63.2C59.1,63.6,58.5,63.9,57.9,63.9z"/>
	<path class="st0" d="M20.9,40.8h-8.3c-0.6,0-1-0.4-1-1s0.4-1,1-1h8.3c0.6,0,1,0.4,1,1S21.4,40.8,20.9,40.8z"/>
	<path class="st0" d="M41.5,32.7H7.3c-0.6,0-1-0.4-1-1s0.4-1,1-1h34.2c0.6,0,1,0.4,1,1S42.1,32.7,41.5,32.7z"/>
</g>
</svg>
