<?xml version="1.0" encoding="utf-8"?>
<!-- Generator: Adobe Illustrator 26.0.1, SVG Export Plug-In . SVG Version: 6.00 Build 0)  -->
<svg version="1.1" id="Layer_1" xmlns="http://www.w3.org/2000/svg" xmlns:xlink="http://www.w3.org/1999/xlink" x="0px" y="0px"
	 viewBox="0 0 1920 1080" style="enable-background:new 0 0 1920 1080;" xml:space="preserve">
<style type="text/css">
	.st0{fill:#50C3F0;}
	.st1{fill:#5ECAEA;}
	.st2{fill:#E0F2F7;}
</style>
<g>
	<path class="st0" d="M731.3,208.4c0,0-26.4,70.8-63,107.8c0,0-13.6,23.8-24.7,52.4c0,0,20.1-30.4,27.9-26.6l12.6-15.4
		c0,0-39.3,128.6-152.8,278.4c0,0,55.7-14.9,113.9-82.7c0,0-8.1,134.5-134.4,101.4c0,0-11.7,5.8-25.6,20.9c0,0,13.1-19.2,33.6-34.7
		c0,0-60.7,37-84,113.5c0,0,10.8,3.4-6.1,20.3c0,0,45.1-41.7,91.9-48.4c0,0-63.8,65.5-115,123.9c0,0,47.7-52.3,82.2-69.2
		s48.2-49.3,57.4-34.8c0,0,26.3-22.2,39.7-55.1c0,0-108.3,42.1-140.9,67.3c0,0,9.9-19.9,20.3-31.4c0,0-10.9,8.9-15,16.3
		c0,0,8.6-27,37.1-44.4l-17.6,22.2c0,0,29.5-28.8,35.4-29.7c6-0.9,43.9-8.4,43.9-8.4s-5-3.6,9.6-8.1c14.6-4.5,52.9-13.4,75-57
		c0,0-10.7,18-16.8,18.1c-6.1,0.1,15.8-20.4,22.9-42.4c7.1-21.9,11.6-15.6,6.5-1.9c0,0,16-50.7,34.5-73.4c0,0-59.1,61.8-82.5,67
		c0,0,43.5-59.7,49.6-92.2s10-66.3,25.1-92c15.1-25.6,25.8-51,28.9-77.5c0,0-10.4,30.6-28.8,44.4c0,0,19.7-43.6,31-52.7
		C703.3,284.5,723.8,236,731.3,208.4z"/>
	<g>
		<path class="st1" d="M587.6,560.9l6.4-8.8c0.4-0.6,43-59.3,48.9-90.6c1-5.3,1.9-10.7,2.9-16c1.6-9.3,3.3-18.8,5.3-28.1
			c-23.1,48-58,111.1-108,178.8c13.7-5.9,36.9-18.1,63.4-40.9c-3,1.5-5.8,2.6-8.2,3.1L587.6,560.9z"/>
	</g>
	<g>
		<path class="st1" d="M603,616.5c-23.7,17.2-54.5,21.1-91.6,11.8c-3.3,1.9-12.6,7.9-23.2,19.3l-3.3-2.7
			c-16.4,17.9-34.5,43.5-45.2,76.9c0.6,0.6,1.1,1.3,1.6,2.1c1.2-2.3,3.6-6.7,6.6-11.6l-2.4-1c0.4-1.2,9.4-28.7,38.9-46.7l19.9-12.2
			l-4.7,6c1.7-1,3.1-1.7,4.2-1.8c4.7-0.7,30-5.7,39.8-7.6c1-3.6,5.1-6.3,13.1-8.7c0.9-0.3,1.9-0.6,3-0.9
			c12.3-3.6,34.7-10.3,53.5-30.7c-0.1-0.1-0.2-0.1-0.3-0.2C609.7,611.3,606.5,614,603,616.5z"/>
	</g>
	<path class="st2" d="M586.7,553.4c11.8-16.1,43.4-63.6,48.2-88.9c0.9-4.9,1.8-9.8,2.7-14.7c-24.7,47.8-53.3,94.5-85.4,139.3
		c9.1-4.9,19.9-11.5,31.6-20.2l-10,2.2L586.7,553.4z"/>
	<path class="st0" d="M594.8,512.2c14.7-24.7-0.3-39.8-0.3-39.8l41.6-86.4c0,0-29.3,76-33.8,88c-4.4,12,4.3,18.5,4.3,18.5l-0.2,8.3
		L594.8,512.2z"/>
	<path class="st0" d="M614.8,600.2c13.4-19.5,8.3-53.1-3.8-43c-12.1,10,10.5-11.4,10.5-11.4s14-14.9,7-5c-7.1,9.8-7.5,49.4-0.4,40.2
		c7.2-9.1-9.3,16.6-9.3,16.6L614.8,600.2z"/>
	<path class="st0" d="M542,628.9c12.7,0,36.6-47.5,20.7-37.6c-15.9,9.9,13.5-10.3,13.5-10.3s12.9-6.2,2.7,0.6
		c-10.2,6.7-15.4,30.2-15.4,30.2s-20.5,19.3-6.4,17.1c14.2-2.2,1.8,2.4,1.8,2.4L542,628.9z"/>
	<path class="st0" d="M647.1,416.6c-7.5,10.3-23.9,34.9-28.8,35.1c-4.8,0.2-2.2-13.8-2.2-13.8l-5.9,9.2c0,0-5.1,14,0,6
		c5.1-7.9,8.5,2,8.5,2s21.4-28.9,19.8-21.3c-1.6,7.6,6.8-9.1,6.8-9.1L647.1,416.6z"/>
	<path class="st0" d="M660.3,507.1c-10.9,8.3-44,27.5-21.4-21.4l-2.5-1.4c0,0-11.7,28.5-8.3,22.5c3.3-6,2.8,12.2,2.8,12.2
		s19-2,16.8,0c-2.2,2,5.6-2.5,5.6-2.5L660.3,507.1z"/>
</g>
<g>
	<path class="st0" d="M1538.1,208.4c0,0-26.4,70.8-63,107.8c0,0-13.6,23.8-24.7,52.4c0,0,20.1-30.4,27.9-26.6l12.6-15.4
		c0,0-39.3,128.6-152.8,278.4c0,0,55.7-14.9,113.9-82.7c0,0-8.1,134.5-134.4,101.4c0,0-11.7,5.8-25.6,20.9c0,0,13.1-19.2,33.6-34.7
		c0,0-60.7,37-84,113.5c0,0,10.8,3.4-6.1,20.3c0,0,45.1-41.7,91.9-48.4c0,0-63.8,65.5-115,123.9c0,0,47.7-52.3,82.2-69.2
		c34.5-16.9,48.2-49.3,57.4-34.8c0,0,26.3-22.2,39.7-55.1c0,0-108.3,42.1-140.9,67.3c0,0,9.9-19.9,20.3-31.4c0,0-10.9,8.9-15,16.3
		c0,0,8.6-27,37.1-44.4l-17.6,22.2c0,0,29.5-28.8,35.4-29.7c6-0.9,43.9-8.4,43.9-8.4s-5-3.6,9.6-8.1c14.6-4.5,52.9-13.4,75-57
		c0,0-10.7,18-16.8,18.1c-6.1,0.1,15.8-20.4,22.9-42.4c7.1-21.9,11.6-15.6,6.5-1.9c0,0,16-50.7,34.5-73.4c0,0-59.1,61.8-82.5,67
		c0,0,43.5-59.7,49.6-92.2c6.1-32.6,10-66.3,25.1-92c15.1-25.6,25.8-51,28.9-77.5c0,0-10.4,30.6-28.8,44.4c0,0,19.7-43.6,31-52.7
		C1510,284.5,1530.5,236,1538.1,208.4z"/>
	<g>
		<path class="st1" d="M1394.3,560.9l6.4-8.8c0.4-0.6,43-59.3,48.9-90.6c1-5.3,1.9-10.7,2.9-16c1.6-9.3,3.3-18.8,5.3-28.1
			c-23.1,48-58,111.1-108,178.8c13.7-5.9,36.9-18.1,63.4-40.9c-3,1.5-5.8,2.6-8.2,3.1L1394.3,560.9z"/>
	</g>
	<g>
		<path class="st1" d="M1409.7,616.5c-23.7,17.2-54.5,21.1-91.6,11.8c-3.3,1.9-12.6,7.9-23.2,19.3l-3.3-2.7
			c-16.4,17.9-34.5,43.5-45.2,76.9c0.6,0.6,1.1,1.3,1.6,2.1c1.2-2.3,3.6-6.7,6.6-11.6l-2.4-1c0.4-1.2,9.4-28.7,38.9-46.7l19.9-12.2
			l-4.7,6c1.7-1,3.1-1.7,4.2-1.8c4.7-0.7,30-5.7,39.8-7.6c1-3.6,5.1-6.3,13.1-8.7c0.9-0.3,1.9-0.6,3-0.9
			c12.3-3.6,34.7-10.3,53.5-30.7c-0.1-0.1-0.2-0.1-0.3-0.2C1416.4,611.3,1413.2,614,1409.7,616.5z"/>
	</g>
	<path class="st2" d="M1393.4,553.4c11.8-16.1,43.4-63.6,48.2-88.9c0.9-4.9,1.8-9.8,2.7-14.7c-24.7,47.8-53.3,94.5-85.4,139.3
		c9.1-4.9,19.9-11.5,31.6-20.2l-10,2.2L1393.4,553.4z"/>
	<path class="st0" d="M1401.6,512.2c14.7-24.7-0.3-39.8-0.3-39.8l41.6-86.4c0,0-29.3,76-33.8,88c-4.4,12,4.3,18.5,4.3,18.5l-0.2,8.3
		L1401.6,512.2z"/>
	<path class="st0" d="M1421.5,600.2c13.4-19.5,8.3-53.1-3.8-43c-12.1,10,10.5-11.4,10.5-11.4s14-14.9,7-5
		c-7.1,9.8-7.5,49.4-0.4,40.2c7.2-9.1-9.3,16.6-9.3,16.6L1421.5,600.2z"/>
	<path class="st0" d="M1348.7,628.9c12.7,0,36.6-47.5,20.7-37.6c-15.9,9.9,13.5-10.3,13.5-10.3s12.9-6.2,2.7,0.6
		c-10.2,6.7-15.4,30.2-15.4,30.2s-20.5,19.3-6.4,17.1c14.2-2.2,1.8,2.4,1.8,2.4L1348.7,628.9z"/>
	<path class="st0" d="M1453.8,416.6c-7.5,10.3-23.9,34.9-28.8,35.1c-4.8,0.2-2.2-13.8-2.2-13.8l-5.9,9.2c0,0-5.1,14,0,6
		c5.1-7.9,8.5,2,8.5,2s21.4-28.9,19.8-21.3c-1.6,7.6,6.8-9.1,6.8-9.1L1453.8,416.6z"/>
	<path class="st0" d="M1467.1,507.1c-10.9,8.3-44,27.5-21.4-21.4l-2.5-1.4c0,0-11.7,28.5-8.3,22.5c3.3-6,2.8,12.2,2.8,12.2
		s19-2,16.8,0c-2.2,2,5.6-2.5,5.6-2.5L1467.1,507.1z"/>
</g>
</svg>
