<?xml version="1.0" encoding="utf-8"?>
<!-- Generator: Adobe Illustrator 26.0.1, SVG Export Plug-In . SVG Version: 6.00 Build 0)  -->
<svg version="1.1" id="Layer_1" xmlns="http://www.w3.org/2000/svg" xmlns:xlink="http://www.w3.org/1999/xlink" x="0px" y="0px"
	 viewBox="0 0 2000 1080" style="enable-background:new 0 0 2000 1080;" xml:space="preserve">
<style type="text/css">
	.st0{fill:#50C3F0;}
	.st1{fill:#5ECAEA;}
	.st2{fill:#E0F2F7;}
</style>
<g>
	<path class="st0" d="M720.4,354.6c0,0-21.2,56.9-50.6,86.6c0,0-10.9,19.1-19.8,42.1c0,0,16.1-24.4,22.4-21.4l10.1-12.4
		c0,0-31.6,103.3-122.7,223.6c0,0,44.7-12,91.5-66.4c0,0-6.5,108-108,81.4c0,0-9.4,4.7-20.6,16.8c0,0,10.5-15.4,27-27.9
		c0,0-48.8,29.7-67.5,91.2c0,0,8.7,2.7-4.9,16.3c0,0,36.2-33.5,73.8-38.9c0,0-51.2,52.6-92.4,99.5c0,0,38.3-42,66-55.6
		s38.7-39.6,46.1-28c0,0,21.1-17.8,31.9-44.3c0,0-87,33.8-113.2,54.1c0,0,8-16,16.3-25.2c0,0-8.8,7.1-12,13.1
		c0,0,6.9-21.7,29.8-35.7l-14.1,17.8c0,0,23.7-23.1,28.4-23.9c4.8-0.7,35.3-6.7,35.3-6.7s-4-2.9,7.7-6.5
		c11.7-3.6,42.5-10.8,60.2-45.8c0,0-8.6,14.5-13.5,14.5s12.7-16.4,18.4-34.1c5.7-17.6,9.3-12.5,5.2-1.5c0,0,12.9-40.7,27.7-59
		c0,0-47.5,49.6-66.3,53.8c0,0,34.9-48,39.8-74.1c4.9-26.1,8-53.3,20.2-73.9c12.1-20.6,20.7-41,23.2-62.3c0,0-8.4,24.6-23.1,35.7
		c0,0,15.8-35,24.9-42.3C697.8,415.7,714.3,376.7,720.4,354.6z"/>
	<g>
		<path class="st1" d="M604.9,637.7l5.1-7.1c0.3-0.5,34.5-47.6,39.3-72.8c0.8-4.3,1.5-8.6,2.3-12.9c1.3-7.5,2.7-15.1,4.3-22.6
			c-18.6,38.6-46.6,89.2-86.8,143.6c11-4.7,29.6-14.5,50.9-32.9c-2.4,1.2-4.7,2.1-6.6,2.5L604.9,637.7z"/>
	</g>
	<g>
		<path class="st1" d="M617.3,682.4c-19,13.8-43.8,16.9-73.6,9.5c-2.7,1.5-10.1,6.3-18.6,15.5l-2.7-2.2
			c-13.2,14.4-27.7,34.9-36.3,61.8c0.5,0.5,0.9,1,1.3,1.7c1-1.8,2.9-5.4,5.3-9.3l-1.9-0.8c0.3-1,7.6-23.1,31.2-37.5l16-9.8l-3.8,4.8
			c1.4-0.8,2.5-1.4,3.4-1.4c3.8-0.6,24.1-4.6,32-6.1c0.8-2.9,4.1-5.1,10.5-7c0.7-0.2,1.5-0.5,2.4-0.7c9.9-2.9,27.9-8.3,43-24.7
			c-0.1-0.1-0.2-0.1-0.2-0.2C622.6,678.1,620.1,680.4,617.3,682.4z"/>
	</g>
	<path class="st2" d="M604.2,631.7c9.5-12.9,34.9-51.1,38.7-71.4c0.7-3.9,1.4-7.9,2.2-11.8c-19.8,38.4-42.8,75.9-68.6,111.9
		c7.3-3.9,16-9.2,25.4-16.2l-8,1.8L604.2,631.7z"/>
	<path class="st0" d="M610.7,598.6c11.8-19.8-0.2-32-0.2-32l33.4-69.4c0,0-23.5,61-27.1,70.7c-3.5,9.6,3.5,14.9,3.5,14.9l-0.2,6.7
		L610.7,598.6z"/>
	<path class="st0" d="M626.7,669.2c10.8-15.7,6.7-42.7-3.1-34.5c-9.7,8,8.4-9.2,8.4-9.2s11.2-12,5.6-4c-5.7,7.9-6,39.7-0.3,32.3
		c5.8-7.3-7.5,13.3-7.5,13.3L626.7,669.2z"/>
	<path class="st0" d="M568.3,692.3c10.2,0,29.4-38.2,16.6-30.2c-12.8,8,10.8-8.3,10.8-8.3s10.4-5,2.2,0.5
		c-8.2,5.5-12.4,24.3-12.4,24.3s-16.5,15.5-5.1,13.7c11.4-1.8,1.4,1.9,1.4,1.9L568.3,692.3z"/>
	<path class="st0" d="M652.7,521.8c-6,8.3-19.2,28-23.1,28.2c-3.9,0.2-1.8-11.1-1.8-11.1l-4.7,7.4c0,0-4.1,11.2,0,4.8
		c4.1-6.3,6.8,1.6,6.8,1.6s17.2-23.2,15.9-17.1c-1.3,6.1,5.5-7.3,5.5-7.3L652.7,521.8z"/>
	<path class="st0" d="M663.4,594.4c-8.8,6.7-35.3,22.1-17.2-17.2l-2-1.1c0,0-9.4,22.9-6.7,18.1c2.7-4.8,2.2,9.8,2.2,9.8
		s15.3-1.6,13.5,0s4.5-2,4.5-2L663.4,594.4z"/>
</g>
<g>
	<path class="st0" d="M1533.3,354.6c0,0-21.2,56.9-50.6,86.6c0,0-10.9,19.1-19.8,42.1c0,0,16.1-24.4,22.4-21.4l10.1-12.4
		c0,0-31.6,103.3-122.7,223.6c0,0,44.7-12,91.5-66.4c0,0-6.5,108-108,81.4c0,0-9.4,4.7-20.6,16.8c0,0,10.5-15.4,27-27.9
		c0,0-48.8,29.7-67.5,91.2c0,0,8.7,2.7-4.9,16.3c0,0,36.2-33.5,73.8-38.9c0,0-51.2,52.6-92.4,99.5c0,0,38.3-42,66-55.6
		c27.7-13.6,38.7-39.6,46.1-28c0,0,21.1-17.8,31.9-44.3c0,0-87,33.8-113.2,54.1c0,0,8-16,16.3-25.2c0,0-8.8,7.1-12,13.1
		c0,0,6.9-21.7,29.8-35.7l-14.1,17.8c0,0,23.7-23.1,28.4-23.9c4.8-0.7,35.3-6.7,35.3-6.7s-4-2.9,7.7-6.5
		c11.7-3.6,42.5-10.8,60.2-45.8c0,0-8.6,14.5-13.5,14.5s12.7-16.4,18.4-34.1c5.7-17.6,9.3-12.5,5.2-1.5c0,0,12.9-40.7,27.7-59
		c0,0-47.5,49.6-66.3,53.8c0,0,34.9-48,39.8-74.1c4.9-26.1,8-53.3,20.2-73.9c12.1-20.6,20.7-41,23.2-62.3c0,0-8.4,24.6-23.1,35.7
		c0,0,15.8-35,24.9-42.3C1510.7,415.7,1527.2,376.7,1533.3,354.6z"/>
	<g>
		<path class="st1" d="M1417.8,637.7l5.1-7.1c0.3-0.5,34.5-47.6,39.3-72.8c0.8-4.3,1.5-8.6,2.3-12.9c1.3-7.5,2.7-15.1,4.3-22.6
			c-18.6,38.6-46.6,89.2-86.8,143.6c11-4.7,29.6-14.5,50.9-32.9c-2.4,1.2-4.7,2.1-6.6,2.5L1417.8,637.7z"/>
	</g>
	<g>
		<path class="st1" d="M1430.2,682.4c-19,13.8-43.8,16.9-73.6,9.5c-2.7,1.5-10.1,6.3-18.6,15.5l-2.7-2.2
			c-13.2,14.4-27.7,34.9-36.3,61.8c0.5,0.5,0.9,1,1.3,1.7c1-1.8,2.9-5.4,5.3-9.3l-1.9-0.8c0.3-1,7.6-23.1,31.2-37.5l16-9.8l-3.8,4.8
			c1.4-0.8,2.5-1.4,3.4-1.4c3.8-0.6,24.1-4.6,32-6.1c0.8-2.9,4.1-5.1,10.5-7c0.7-0.2,1.5-0.5,2.4-0.7c9.9-2.9,27.9-8.3,43-24.7
			c-0.1-0.1-0.2-0.1-0.2-0.2C1435.6,678.1,1433,680.4,1430.2,682.4z"/>
	</g>
	<path class="st2" d="M1417.1,631.7c9.5-12.9,34.9-51.1,38.7-71.4c0.7-3.9,1.4-7.9,2.2-11.8c-19.8,38.4-42.8,75.9-68.6,111.9
		c7.3-3.9,16-9.2,25.4-16.2l-8,1.8L1417.1,631.7z"/>
	<path class="st0" d="M1423.6,598.6c11.8-19.8-0.2-32-0.2-32l33.4-69.4c0,0-23.5,61-27.1,70.7c-3.5,9.6,3.5,14.9,3.5,14.9l-0.2,6.7
		L1423.6,598.6z"/>
	<path class="st0" d="M1439.7,669.2c10.8-15.7,6.7-42.7-3.1-34.5c-9.7,8,8.4-9.2,8.4-9.2s11.2-12,5.6-4c-5.7,7.9-6,39.7-0.3,32.3
		c5.8-7.3-7.5,13.3-7.5,13.3L1439.7,669.2z"/>
	<path class="st0" d="M1381.2,692.3c10.2,0,29.4-38.2,16.6-30.2s10.8-8.3,10.8-8.3s10.4-5,2.2,0.5c-8.2,5.5-12.4,24.3-12.4,24.3
		s-16.5,15.5-5.1,13.7c11.4-1.8,1.4,1.9,1.4,1.9L1381.2,692.3z"/>
	<path class="st0" d="M1465.6,521.8c-6,8.3-19.2,28-23.1,28.2c-3.9,0.2-1.8-11.1-1.8-11.1l-4.7,7.4c0,0-4.1,11.2,0,4.8
		c4.1-6.3,6.8,1.6,6.8,1.6s17.2-23.2,15.9-17.1c-1.3,6.1,5.5-7.3,5.5-7.3L1465.6,521.8z"/>
	<path class="st0" d="M1476.3,594.4c-8.8,6.7-35.3,22.1-17.2-17.2l-2-1.1c0,0-9.4,22.9-6.7,18.1c2.7-4.8,2.2,9.8,2.2,9.8
		s15.3-1.6,13.5,0c-1.8,1.6,4.5-2,4.5-2L1476.3,594.4z"/>
</g>
</svg>
