<?xml version="1.0" encoding="utf-8"?>
<!-- Generator: Adobe Illustrator 26.0.1, SVG Export Plug-In . SVG Version: 6.00 Build 0)  -->
<svg version="1.1" id="Layer_1" xmlns="http://www.w3.org/2000/svg" xmlns:xlink="http://www.w3.org/1999/xlink" x="0px" y="0px"
	 viewBox="0 0 120 120" style="enable-background:new 0 0 120 120;" xml:space="preserve">
<style type="text/css">
	.st0{fill:#FFFFFF;}
</style>
<g>
	<path class="st0" d="M80.4,51.7H38.6c-1.2,0-2.2-1-2.2-2.2s1-2.2,2.2-2.2h41.8c1.2,0,2.2,1,2.2,2.2C82.6,50.8,81.6,51.7,80.4,51.7z
		"/>
	<path class="st0" d="M80.4,62.2H56.2c-1.2,0-2.2-1-2.2-2.2s1-2.2,2.2-2.2h24.2c1.2,0,2.2,1,2.2,2.2C82.6,61.2,81.6,62.2,80.4,62.2z
		"/>
	<path class="st0" d="M44,68.3c-1.2,0-2.2,1-2.2,2.2c0,1.2,1,2.2,2.2,2.2h37.4c1.2,0,2.2-1,2.2-2.2c0-1.2-1-2.2-2.2-2.2H44z"/>
</g>
</svg>
