<?xml version="1.0" encoding="utf-8"?>
<!-- Generator: Adobe Illustrator 26.0.1, SVG Export Plug-In . SVG Version: 6.00 Build 0)  -->
<svg version="1.1" id="Layer_1" xmlns="http://www.w3.org/2000/svg" xmlns:xlink="http://www.w3.org/1999/xlink" x="0px" y="0px"
	 viewBox="0 0 300 300" style="enable-background:new 0 0 300 300;" xml:space="preserve">
<style type="text/css">
	.st0{opacity:0.67;}
	.st1{fill:#EB3B95;}
</style>
<g class="st0">
	<path class="st1" d="M110,114.9l32.6,37c1.9,2.1,4.5,3.3,7.3,3.3c2.8,0,5.5-1.2,7.3-3.3l32.1-36.4c0.3-0.3,0.6-0.5,0.9-0.7
		c-1.4-0.6-2.9-0.9-4.4-0.9h-71.7c-1.5,0-2.9,0.3-4.3,0.9C109.9,114.8,110,114.8,110,114.9z"/>
	<path class="st1" d="M195.2,119.1c-0.1,0.4-0.3,0.7-0.6,1.1l-32.1,36.4c-3.2,3.6-7.8,5.7-12.6,5.7c-4.8,0-9.4-2.1-12.6-5.7
		l-32.6-37c-0.1-0.1-0.1-0.2-0.2-0.2c-1,1.7-1.6,3.6-1.6,5.7v50.1c0,6.1,5,11.1,11.1,11.1h71.7c6.1,0,11.1-5,11.1-11.1v-50.1
		C197,122.8,196.3,120.8,195.2,119.1z"/>
</g>
</svg>
