<?xml version="1.0" encoding="utf-8"?>
<!-- Generator: Adobe Illustrator 26.0.1, SVG Export Plug-In . SVG Version: 6.00 Build 0)  -->
<svg version="1.1" xmlns="http://www.w3.org/2000/svg" xmlns:xlink="http://www.w3.org/1999/xlink" x="0px" y="0px"
	 viewBox="0 0 500 500" style="enable-background:new 0 0 500 500;" xml:space="preserve">
<style type="text/css">
	.st0{fill:#FFFFFF;}
	.st1{opacity:0.15;fill:#FFFFFF;}
	.st2{opacity:0.25;fill:#FFFFFF;}
	.st3{opacity:0.1;fill:#FFFFFF;}
	.st4{opacity:5.000000e-02;fill:#FFFFFF;}
</style>
<g id="BACKGROUND">
</g>
<g id="OBJECTS">
	<g>
		<g>
			<g>
				<g>
					<path class="st0" d="M211.7,240.7l-9.3,9.3l38,38l0,0c5.2-5.2,5.2-13.5,0-18.7L211.7,240.7z"/>
					<path class="st1" d="M243.7,274.9c-0.6-2-1.7-3.9-3.3-5.6l-28.7-28.7l-0.9,0.9L243.7,274.9z"/>
					<polygon class="st2" points="212.5,260.2 225.6,254.6 211.7,240.7 202.3,250 					"/>
					<polygon class="st2" points="212.1,259.8 223.6,252.6 211.7,240.7 202.3,250 					"/>
				</g>
				<g>
					<path class="st0" d="M240.3,230.7l-28.7,28.7l-9.3-9.3l38-38l0,0C245.5,217.1,245.5,225.5,240.3,230.7z"/>
					<path class="st1" d="M210.6,258.2l1.1,1.1l28.7-28.7c1.6-1.6,2.7-3.5,3.3-5.5L210.6,258.2z"/>
					<path class="st3" d="M239.1,216.9L239.1,216.9c-0.2-0.2-0.6-0.2-0.8,0l-32.5,32.5c-0.2,0.2-0.2,0.6,0,0.8l0,0
						c0.2,0.2,0.5,0.2,0.8,0.1c5.7-3.8,11.5-8.6,17.1-14.2c6.1-6.1,11.4-12.3,15.5-18.6C239.3,217.4,239.3,217.1,239.1,216.9z"/>
				</g>
			</g>
			<g>
				<g>
					<path class="st0" d="M288.3,259.3l9.3-9.3l-38-38l0,0c-5.2,5.2-5.2,13.5,0,18.7L288.3,259.3z"/>
					<path class="st1" d="M256.3,225.1c0.6,2,1.7,3.9,3.3,5.6l28.7,28.7l0.9-0.9L256.3,225.1z"/>
					<polygon class="st2" points="287.5,239.8 274.4,245.4 288.3,259.3 297.7,250 					"/>
					<polygon class="st2" points="287.9,240.2 276.4,247.4 288.3,259.3 297.7,250 					"/>
				</g>
				<g>
					<path class="st0" d="M259.7,269.3l28.7-28.7l9.3,9.3l-38,38v0C254.5,282.9,254.5,274.5,259.7,269.3z"/>
					<path class="st1" d="M289.4,241.8l-1.1-1.1l-28.7,28.7c-1.6,1.6-2.7,3.5-3.3,5.5L289.4,241.8z"/>
					<path class="st3" d="M259.5,284.5L259.5,284.5c0.2,0.2,0.6,0.2,0.8,0l33.8-33.9c0.2-0.2,0.2-0.6,0-0.9l0,0
						c-0.2-0.2-0.5-0.2-0.8-0.1c-6,4-12,9-17.8,14.8c-6.4,6.4-11.9,12.8-16.1,19.3C259.3,284,259.3,284.3,259.5,284.5z"/>
				</g>
			</g>
		</g>
		<g>
			<g>
				<g>
					<g>
						<path class="st0" d="M216.7,297.8l-53.8,0v25.7h79.5l0,0C242.4,309.3,230.9,297.8,216.7,297.8z"/>
						<path class="st1" d="M162.9,300.8v-3l53.8,0c4.4,0,8.4,1.1,12,3H162.9z"/>
					</g>
					<polygon class="st2" points="199.7,297.8 191.6,323.5 162.9,323.5 162.9,297.8 					"/>
					<polygon class="st2" points="194.6,297.8 190.3,323.5 162.9,323.5 162.9,297.8 					"/>
				</g>
				<g>
					
						<rect x="102.3" y="237.2" transform="matrix(1.361267e-06 -1 1 1.361267e-06 -74.2587 425.7413)" class="st0" width="146.9" height="25.7"/>
					<path class="st4" d="M167.8,308.9L167.8,308.9c-0.6,0-1.2-0.5-1.2-1.1l0.1-94.2c0-0.7,0.5-1.2,1.2-1.2l0,0c0.6,0,1.1,0.4,1.2,1
						c2.7,13.9,4.3,29.2,4.3,45.4c0,17.8-1.3,34.4-4.5,49.3C168.8,308.5,168.4,308.9,167.8,308.9z"/>
					
						<rect x="113.2" y="248.1" transform="matrix(6.806342e-07 -1 1 6.806342e-07 -63.3022 436.6985)" class="st1" width="146.9" height="3.8"/>
					<polygon class="st2" points="188.6,176.5 188.6,217 162.9,205.6 162.9,176.5 					"/>
					<polygon class="st2" points="188.6,176.5 188.6,208 162.9,204.3 162.9,176.5 					"/>
				</g>
				<g>
					<path class="st0" d="M216.7,202.2h-53.8v-25.7h79.5l0,0C242.4,190.7,230.9,202.2,216.7,202.2z"/>
					<path class="st1" d="M162.9,199.2v3l53.8,0c4.4,0,8.4-1.1,12-3H162.9z"/>
					<path class="st4" d="M236.6,180.6L236.6,180.6c0-0.4-0.4-0.8-0.8-0.8l-66.8,0.1c-0.5,0-0.8,0.4-0.8,0.8l0,0
						c0,0.4,0.3,0.8,0.7,0.8c9.6,1.9,20.3,3,31.5,3c12.3,0,25.2-0.9,35.6-3.1C236.3,181.3,236.6,181,236.6,180.6z"/>
				</g>
			</g>
			<g>
				<g>
					<g>
						<path class="st0" d="M283.3,202.2h53.8v-25.7h-79.5l0,0C257.6,190.7,269.1,202.2,283.3,202.2z"/>
						<path class="st1" d="M337.1,199.2v3l-53.8,0c-4.4,0-8.4-1.1-12-3H337.1z"/>
					</g>
					<polygon class="st2" points="300.3,202.2 308.4,176.5 337.1,176.5 337.1,202.2 					"/>
					<polygon class="st2" points="305.4,202.2 309.7,176.5 337.1,176.5 337.1,202.2 					"/>
				</g>
				<g>
					
						<rect x="250.8" y="237.2" transform="matrix(-6.806337e-07 1 -1 -6.806337e-07 574.2587 -74.2582)" class="st0" width="146.9" height="25.7"/>
					<path class="st4" d="M332.2,191.1L332.2,191.1c0.6,0,1.2,0.5,1.2,1.1l-0.1,94.2c0,0.7-0.5,1.2-1.2,1.2l0,0
						c-0.6,0-1.1-0.4-1.2-1c-2.7-13.9-4.3-29.2-4.3-45.4c0-17.8,1.3-34.4,4.5-49.3C331.2,191.5,331.6,191.1,332.2,191.1z"/>
					
						<rect x="239.8" y="248.1" transform="matrix(-1.836970e-16 1 -1 -1.836970e-16 563.3015 -63.3021)" class="st1" width="146.9" height="3.8"/>
					<polygon class="st2" points="311.4,323.5 311.4,283 337.1,294.4 337.1,323.5 					"/>
					<polygon class="st2" points="311.4,323.5 311.4,292 337.1,295.7 337.1,323.5 					"/>
				</g>
				<g>
					<path class="st0" d="M283.3,297.8l53.8,0v25.7h-79.5l0,0C257.6,309.3,269.1,297.8,283.3,297.8z"/>
					<path class="st1" d="M337.1,300.8v-3l-53.8,0c-4.4,0-8.4,1.1-12,3H337.1z"/>
					<path class="st4" d="M263.4,319.4L263.4,319.4c0,0.4,0.4,0.8,0.8,0.8l66.8-0.1c0.5,0,0.8-0.4,0.8-0.8l0,0
						c0-0.4-0.3-0.8-0.7-0.8c-9.6-1.9-21.6-3-32.8-3c-12.3,0-23.9,0.9-34.3,3.1C263.7,318.7,263.4,319,263.4,319.4z"/>
				</g>
			</g>
		</g>
	</g>
</g>
</svg>
