<?xml version="1.0" encoding="utf-8"?>
<!-- Generator: Adobe Illustrator 26.0.1, SVG Export Plug-In . SVG Version: 6.00 Build 0)  -->
<svg version="1.1" id="Layer_1" xmlns="http://www.w3.org/2000/svg" xmlns:xlink="http://www.w3.org/1999/xlink" x="0px" y="0px"
	 viewBox="0 0 120 120" style="enable-background:new 0 0 120 120;" xml:space="preserve">
<style type="text/css">
	.st0{display:none;}
	.st1{fill:none;stroke:#080820;stroke-miterlimit:10.0003;}
	.st2{display:none;fill:#FFFFFF;}
	.st3{display:inline;}
	.st4{fill-rule:evenodd;clip-rule:evenodd;fill:#FFFFFF;}
	.st5{fill:#080820;}
</style>
<rect x="-33.1" y="-13.8" class="st0" width="188.9" height="159.7"/>
<ellipse id="XMLID_2112_" class="st1" cx="59.7" cy="60.4" rx="26.7" ry="26.7"/>
<path id="XMLID_1065_" class="st2" d="M59.7,48c4.1,0,4.5,0,6.1,0.1c1.5,0.1,2.3,0.3,2.8,0.5c0.7,0.3,1.2,0.6,1.7,1.1s0.9,1,1.1,1.7
	c0.2,0.5,0.5,1.3,0.5,2.8c0.1,1.6,0.1,2.1,0.1,6.1s0,4.5-0.1,6.1c-0.1,1.5-0.3,2.3-0.5,2.8c-0.3,0.7-0.6,1.2-1.1,1.7s-1,0.9-1.7,1.1
	c-0.5,0.2-1.3,0.5-2.8,0.5c-1.6,0.1-2.1,0.1-6.1,0.1c-4.1,0-4.5,0-6.1-0.1c-1.5-0.1-2.3-0.3-2.8-0.5c-0.7-0.3-1.2-0.6-1.7-1.1
	s-0.9-1-1.1-1.7c-0.2-0.5-0.5-1.3-0.5-2.8c-0.1-1.6-0.1-2.1-0.1-6.1s0-4.5,0.1-6.1c0.1-1.5,0.3-2.3,0.5-2.8c0.3-0.7,0.6-1.2,1.1-1.7
	s1-0.9,1.7-1.1c0.5-0.2,1.3-0.5,2.8-0.5C55.1,48,55.6,48,59.7,48 M59.7,45.2c-4.1,0-4.6,0-6.3,0.1c-1.6,0.1-2.7,0.3-3.7,0.7
	s-1.8,0.9-2.7,1.8c-0.8,0.8-1.4,1.7-1.8,2.7c-0.4,1-0.6,2.1-0.7,3.7c-0.1,1.6-0.1,2.1-0.1,6.3c0,4.1,0,4.6,0.1,6.3
	c0.1,1.6,0.3,2.7,0.7,3.7s0.9,1.8,1.8,2.7c0.8,0.8,1.7,1.4,2.7,1.8s2.1,0.6,3.7,0.7c1.6,0.1,2.1,0.1,6.3,0.1c4.1,0,4.6,0,6.3-0.1
	c1.6-0.1,2.7-0.3,3.7-0.7c1-0.4,1.8-0.9,2.7-1.8c0.8-0.8,1.4-1.7,1.8-2.7s0.6-2.1,0.7-3.7s0.1-2.1,0.1-6.3c0-4.1,0-4.6-0.1-6.3
	c-0.1-1.6-0.3-2.7-0.7-3.7c-0.4-1-0.9-1.8-1.8-2.7c-0.8-0.8-1.7-1.4-2.7-1.8c-1-0.4-2.1-0.6-3.7-0.7C64.3,45.2,63.8,45.2,59.7,45.2"
	/>
<path id="XMLID_1053_" class="st2" d="M59.7,52.6c-4.3,0-7.8,3.5-7.8,7.8s3.5,7.8,7.8,7.8s7.8-3.5,7.8-7.8S64,52.6,59.7,52.6
	 M59.7,65.5c-2.8,0-5.1-2.3-5.1-5.1s2.3-5.1,5.1-5.1s5.1,2.3,5.1,5.1C64.7,63.2,62.5,65.5,59.7,65.5"/>
<path id="XMLID_1052_" class="st2" d="M69.6,52.3c0,1-0.8,1.8-1.8,1.8S66,53.3,66,52.3s0.8-1.8,1.8-1.8S69.6,51.3,69.6,52.3"/>
<g id="Icons" class="st0">
	<g id="Color-" transform="translate(-700.000000, -560.000000)" class="st3">
		<path id="Github" class="st4" d="M759.7,604c-9.2,0-16.7,7.5-16.7,16.8c0,7.4,4.8,13.7,11.4,15.9c0.8,0.2,1.1-0.4,1.1-0.8
			c0-0.4,0-1.5,0-2.9c-4.7,1-5.6-2.3-5.6-2.3c-0.8-1.9-1.9-2.5-1.9-2.5c-1.5-1,0.1-1,0.1-1c1.7,0.1,2.6,1.7,2.6,1.7
			c1.5,2.6,3.9,1.8,4.9,1.4c0.2-1.1,0.6-1.8,1.1-2.2c-3.7-0.4-7.6-1.9-7.6-8.3c0-1.8,0.7-3.3,1.7-4.5c-0.2-0.4-0.7-2.1,0.2-4.4
			c0,0,1.4-0.5,4.6,1.7c1.3-0.4,2.8-0.6,4.2-0.6s2.9,0.2,4.2,0.6c3.2-2.2,4.6-1.7,4.6-1.7c0.9,2.3,0.3,4,0.2,4.4
			c1.1,1.2,1.7,2.7,1.7,4.5c0,6.5-3.9,7.9-7.6,8.3c0.6,0.5,1.1,1.5,1.1,3.1c0,2.2,0,4.1,0,4.6c0,0.4,0.3,1,1.2,0.8
			c6.6-2.2,11.4-8.5,11.4-15.9C776.4,611.5,768.9,604,759.7,604"/>
	</g>
</g>
<path class="st5" d="M71.7,49.5C71.7,49.4,71.7,49.4,71.7,49.5c-2.3-1.1-4.6-1.8-7.1-2.2c0,0-0.1,0-0.1,0.1
	c-0.3,0.6-0.6,1.2-0.9,1.8c-2.6-0.4-5.3-0.4-7.9,0c-0.3-0.6-0.6-1.2-0.9-1.8c0,0-0.1-0.1-0.1-0.1c-2.4,0.4-4.8,1.2-7,2.2
	c0,0,0,0,0,0c-4.5,6.7-5.7,13.2-5.1,19.7c0,0,0,0.1,0,0.1c2.6,1.9,5.5,3.4,8.6,4.4c0,0,0.1,0,0.1,0c0.7-0.9,1.3-1.9,1.8-2.9
	c0-0.1,0-0.1,0-0.1c0,0,0,0,0,0c-0.9-0.4-1.8-0.8-2.7-1.3c-0.1,0-0.1-0.1,0-0.2c0,0,0,0,0,0c0.2-0.1,0.4-0.3,0.5-0.4
	c0,0,0.1,0,0.1,0c5.7,2.6,11.8,2.6,17.4,0c0,0,0.1,0,0.1,0c0.2,0.1,0.4,0.3,0.5,0.4c0,0,0.1,0.1,0,0.2c0,0,0,0,0,0
	c-0.9,0.5-1.8,0.9-2.7,1.3c-0.1,0-0.1,0.1-0.1,0.1c0,0,0,0,0,0c0.5,1,1.1,2,1.8,2.9c0,0,0.1,0.1,0.1,0c3.1-1,6-2.4,8.6-4.4
	c0,0,0,0,0-0.1C77.5,61.7,75.6,55.2,71.7,49.5z M54,65.2c-1.7,0-3.1-1.6-3.1-3.5c0-1.9,1.4-3.5,3.1-3.5c1.7,0,3.1,1.6,3.1,3.5
	C57.1,63.6,55.7,65.2,54,65.2z M65.5,65.2c-1.7,0-3.1-1.6-3.1-3.5c0-1.9,1.4-3.5,3.1-3.5c1.7,0,3.1,1.6,3.1,3.5
	C68.6,63.6,67.2,65.2,65.5,65.2z"/>
</svg>
