<?xml version="1.0" encoding="utf-8"?>
<!-- Generator: Adobe Illustrator 26.0.1, SVG Export Plug-In . SVG Version: 6.00 Build 0)  -->
<svg version="1.1" id="Layer_1" xmlns="http://www.w3.org/2000/svg" xmlns:xlink="http://www.w3.org/1999/xlink" x="0px" y="0px"
	 viewBox="0 0 36.4 35" style="enable-background:new 0 0 36.4 35;" xml:space="preserve">
<style type="text/css">
	.st0{display:none;}
	.st1{display:none;fill:#FFFFFF;}
	.st2{fill-rule:evenodd;clip-rule:evenodd;fill:#FFFFFF;}
</style>
<rect x="-74.7" y="-56.7" class="st0" width="188.9" height="159.7"/>
<path id="XMLID_1065_" class="st1" d="M18.1,5.1c4.1,0,4.5,0,6.1,0.1c1.5,0.1,2.3,0.3,2.8,0.5c0.7,0.3,1.2,0.6,1.7,1.1
	s0.9,1,1.1,1.7c0.2,0.5,0.5,1.3,0.5,2.8c0.1,1.6,0.1,2.1,0.1,6.1s0,4.5-0.1,6.1c-0.1,1.5-0.3,2.3-0.5,2.8c-0.3,0.7-0.6,1.2-1.1,1.7
	s-1,0.9-1.7,1.1c-0.5,0.2-1.3,0.5-2.8,0.5c-1.6,0.1-2.1,0.1-6.1,0.1c-4.1,0-4.5,0-6.1-0.1c-1.5-0.1-2.3-0.3-2.8-0.5
	C8.5,28.8,8,28.5,7.5,28s-0.9-1-1.1-1.7c-0.2-0.5-0.5-1.3-0.5-2.8c-0.1-1.6-0.1-2.1-0.1-6.1s0-4.5,0.1-6.1C6,9.8,6.2,9,6.4,8.5
	C6.7,7.8,7,7.3,7.5,6.8s1-0.9,1.7-1.1c0.5-0.2,1.3-0.5,2.8-0.5C13.5,5.1,14,5.1,18.1,5.1 M18.1,2.3c-4.1,0-4.6,0-6.3,0.1
	c-1.6,0.1-2.7,0.3-3.7,0.7S6.3,4,5.4,4.9C4.6,5.7,4,6.6,3.6,7.6c-0.4,1-0.6,2.1-0.7,3.7c-0.1,1.6-0.1,2.1-0.1,6.3
	c0,4.1,0,4.6,0.1,6.3c0.1,1.6,0.3,2.7,0.7,3.7s0.9,1.8,1.8,2.7c0.8,0.8,1.7,1.4,2.7,1.8c1,0.4,2.1,0.6,3.7,0.7
	c1.6,0.1,2.1,0.1,6.3,0.1c4.1,0,4.6,0,6.3-0.1c1.6-0.1,2.7-0.3,3.7-0.7c1-0.4,1.8-0.9,2.7-1.8c0.8-0.8,1.4-1.7,1.8-2.7
	s0.6-2.1,0.7-3.7s0.1-2.1,0.1-6.3c0-4.1,0-4.6-0.1-6.3c-0.1-1.6-0.3-2.7-0.7-3.7c-0.4-1-0.9-1.8-1.8-2.7c-0.8-0.8-1.7-1.4-2.7-1.8
	c-1-0.4-2.1-0.6-3.7-0.7C22.7,2.3,22.2,2.3,18.1,2.3"/>
<path id="XMLID_1053_" class="st1" d="M18.1,9.7c-4.3,0-7.8,3.5-7.8,7.8s3.5,7.8,7.8,7.8s7.8-3.5,7.8-7.8S22.4,9.7,18.1,9.7
	 M18.1,22.6c-2.8,0-5.1-2.3-5.1-5.1s2.3-5.1,5.1-5.1s5.1,2.3,5.1,5.1C23.1,20.3,20.9,22.6,18.1,22.6"/>
<path id="XMLID_1052_" class="st1" d="M28,9.4c0,1-0.8,1.8-1.8,1.8s-1.8-0.8-1.8-1.8s0.8-1.8,1.8-1.8S28,8.4,28,9.4"/>
<g id="Icons">
	<g id="Color-" transform="translate(-700.000000, -560.000000)">
		<path id="Github" class="st2" d="M718.1,561.1c-9.2,0-16.7,7.5-16.7,16.8c0,7.4,4.8,13.7,11.4,15.9c0.8,0.2,1.1-0.4,1.1-0.8
			c0-0.4,0-1.5,0-2.9c-4.7,1-5.6-2.3-5.6-2.3c-0.8-1.9-1.9-2.5-1.9-2.5c-1.5-1,0.1-1,0.1-1c1.7,0.1,2.6,1.7,2.6,1.7
			c1.5,2.6,3.9,1.8,4.9,1.4c0.2-1.1,0.6-1.8,1.1-2.2c-3.7-0.4-7.6-1.9-7.6-8.3c0-1.8,0.7-3.3,1.7-4.5c-0.2-0.4-0.7-2.1,0.2-4.4
			c0,0,1.4-0.5,4.6,1.7c1.3-0.4,2.8-0.6,4.2-0.6s2.9,0.2,4.2,0.6c3.2-2.2,4.6-1.7,4.6-1.7c0.9,2.3,0.3,4,0.2,4.4
			c1.1,1.2,1.7,2.7,1.7,4.5c0,6.5-3.9,7.9-7.6,8.3c0.6,0.5,1.1,1.5,1.1,3.1c0,2.2,0,4.1,0,4.6c0,0.4,0.3,1,1.2,0.8
			c6.6-2.2,11.4-8.5,11.4-15.9C734.8,568.6,727.3,561.1,718.1,561.1"/>
	</g>
</g>
</svg>
