<?xml version="1.0" encoding="utf-8"?>
<!-- Generator: Adobe Illustrator 26.0.1, SVG Export Plug-In . SVG Version: 6.00 Build 0)  -->
<svg version="1.1" id="Layer_1" xmlns="http://www.w3.org/2000/svg" xmlns:xlink="http://www.w3.org/1999/xlink" x="0px" y="0px"
	 viewBox="0 0 58.7 46" style="enable-background:new 0 0 58.7 46;" xml:space="preserve">
<style type="text/css">
	.st0{display:none;fill:none;stroke:#080820;stroke-miterlimit:10.0003;}
	.st1{display:none;}
	.st2{display:inline;fill:#080820;}
	.st3{display:none;fill:#080820;}
	.st4{fill:#080820;}
</style>
<ellipse id="XMLID_2100_" class="st0" cx="27.9" cy="23.4" rx="26.7" ry="26.7"/>
<g id="XMLID_1213_" class="st1">
	<rect id="XMLID_1215_" x="15.5" y="16.8" class="st2" width="5.7" height="18.5"/>
	<path id="XMLID_1214_" class="st2" d="M18.3,14.4c1.9,0,3.4-1.5,3.4-3.4s-1.5-3.4-3.4-3.4s-3.4,1.5-3.4,3.4
		C14.9,12.8,16.5,14.4,18.3,14.4z"/>
</g>
<path id="XMLID_1212_" class="st3" d="M30.4,25.6c0-2.6,1.2-4.2,3.5-4.2c2.1,0,3.1,1.5,3.1,4.2c0,2.7,0,9.7,0,9.7h5.7
	c0,0,0-6.8,0-11.7c0-5-2.8-7.4-6.7-7.4c-3.9,0-5.6,3.1-5.6,3.1v-2.5h-5.5v18.5h5.5C30.4,35.3,30.4,28.5,30.4,25.6z"/>
<path class="st3" d="M41,6.4L4.4,20.6c-1.5,0.7-2,2-0.4,2.7l9.4,3l22.7-14.1c1.2-0.9,2.5-0.6,1.4,0.3L18,30.2l-0.6,7.5
	c0.6,1.2,1.6,1.2,2.3,0.6l5.4-5.1l9.2,7c2.1,1.3,3.3,0.5,3.8-1.9l6.1-28.8C44.8,6.6,43.7,5.3,41,6.4z"/>
<g>
	<path class="st4" d="M51.3,4.8h-45c-0.5,0-1,0.4-1,1s0.4,1,1,1h45c0.5,0,0.9,0.1,1.3,0.3L33.8,25.8c-1.1,1.1-3,1.1-4.2,0L17.4,13.5
		l-1.3-1.3c-0.4-0.4-0.9-0.6-1.4-0.6h-4.5c-0.5,0-1,0.4-1,1c0,0.5,0.4,1,1,1h4.6l13.4,13.6c1,0.9,2.2,1.4,3.5,1.4
		c1.3,0,2.5-0.5,3.5-1.4L54,8.4c0.2,0.4,0.3,0.8,0.3,1.3v27.4c0,1.6-1.3,2.9-2.9,2.9H15.1c-1.6,0-2.9-1.3-2.9-2.9V26.3
		c0-0.5-0.4-1-1-1H5.3c-0.5,0-1,0.4-1,1s0.4,1,1,1h4.9v9.8c0,2.7,2.2,4.9,4.9,4.9h36.2c2.7,0,4.9-2.2,4.9-4.9V9.7
		C56.2,7,54,4.8,51.3,4.8z"/>
	<path class="st4" d="M4.3,13.6h2.9c0.5,0,1-0.4,1-1c0-0.5-0.4-1-1-1H4.3c-0.5,0-1,0.4-1,1C3.3,13.2,3.8,13.6,4.3,13.6z"/>
	<path class="st4" d="M16,19.5c0-0.5-0.4-1-1-1H3.3c-0.5,0-1,0.4-1,1c0,0.5,0.4,1,1,1H15C15.6,20.4,16,20,16,19.5z"/>
</g>
</svg>
