<?xml version="1.0" encoding="utf-8"?>
<!-- Generator: Adobe Illustrator 26.0.1, SVG Export Plug-In . SVG Version: 6.00 Build 0)  -->
<svg version="1.1" id="Layer_1" xmlns="http://www.w3.org/2000/svg" xmlns:xlink="http://www.w3.org/1999/xlink" x="0px" y="0px"
	 viewBox="0 0 120 120" style="enable-background:new 0 0 120 120;" xml:space="preserve">
<style type="text/css">
	.st0{display:none;}
	.st1{fill:none;stroke:#FFFFFF;stroke-miterlimit:10;}
	.st2{fill:#FFFFFF;}
</style>
<rect x="-33.1" y="-13.8" class="st0" width="188.9" height="159.7"/>
<ellipse id="XMLID_2112_" transform="matrix(0.9796 -0.2011 0.2011 0.9796 -10.9332 13.2283)" class="st1" cx="59.7" cy="60.4" rx="26.7" ry="26.7"/>
<path id="XMLID_1065_" class="st2" d="M59.7,48c4.1,0,4.5,0,6.1,0.1c1.5,0.1,2.3,0.3,2.8,0.5c0.7,0.3,1.2,0.6,1.7,1.1
	c0.5,0.5,0.9,1,1.1,1.7c0.2,0.5,0.5,1.3,0.5,2.8c0.1,1.6,0.1,2.1,0.1,6.1s0,4.5-0.1,6.1c-0.1,1.5-0.3,2.3-0.5,2.8
	c-0.3,0.7-0.6,1.2-1.1,1.7c-0.5,0.5-1,0.9-1.7,1.1c-0.5,0.2-1.3,0.5-2.8,0.5c-1.6,0.1-2.1,0.1-6.1,0.1c-4.1,0-4.5,0-6.1-0.1
	c-1.5-0.1-2.3-0.3-2.8-0.5c-0.7-0.3-1.2-0.6-1.7-1.1c-0.5-0.5-0.9-1-1.1-1.7c-0.2-0.5-0.5-1.3-0.5-2.8c-0.1-1.6-0.1-2.1-0.1-6.1
	s0-4.5,0.1-6.1c0.1-1.5,0.3-2.3,0.5-2.8c0.3-0.7,0.6-1.2,1.1-1.7c0.5-0.5,1-0.9,1.7-1.1c0.5-0.2,1.3-0.5,2.8-0.5
	C55.1,48,55.6,48,59.7,48 M59.7,45.2c-4.1,0-4.6,0-6.3,0.1c-1.6,0.1-2.7,0.3-3.7,0.7c-1,0.4-1.8,0.9-2.7,1.8
	c-0.8,0.8-1.4,1.7-1.8,2.7c-0.4,1-0.6,2.1-0.7,3.7c-0.1,1.6-0.1,2.1-0.1,6.3c0,4.1,0,4.6,0.1,6.3c0.1,1.6,0.3,2.7,0.7,3.7
	c0.4,1,0.9,1.8,1.8,2.7c0.8,0.8,1.7,1.4,2.7,1.8c1,0.4,2.1,0.6,3.7,0.7c1.6,0.1,2.1,0.1,6.3,0.1c4.1,0,4.6,0,6.3-0.1
	c1.6-0.1,2.7-0.3,3.7-0.7c1-0.4,1.8-0.9,2.7-1.8c0.8-0.8,1.4-1.7,1.8-2.7c0.4-1,0.6-2.1,0.7-3.7c0.1-1.6,0.1-2.1,0.1-6.3
	c0-4.1,0-4.6-0.1-6.3c-0.1-1.6-0.3-2.7-0.7-3.7c-0.4-1-0.9-1.8-1.8-2.7c-0.8-0.8-1.7-1.4-2.7-1.8c-1-0.4-2.1-0.6-3.7-0.7
	C64.3,45.2,63.8,45.2,59.7,45.2"/>
<path id="XMLID_1053_" class="st2" d="M59.7,52.6c-4.3,0-7.8,3.5-7.8,7.8c0,4.3,3.5,7.8,7.8,7.8c4.3,0,7.8-3.5,7.8-7.8
	C67.5,56.1,64,52.6,59.7,52.6 M59.7,65.5c-2.8,0-5.1-2.3-5.1-5.1c0-2.8,2.3-5.1,5.1-5.1c2.8,0,5.1,2.3,5.1,5.1
	C64.7,63.2,62.5,65.5,59.7,65.5"/>
<path id="XMLID_1052_" class="st2" d="M69.6,52.3c0,1-0.8,1.8-1.8,1.8c-1,0-1.8-0.8-1.8-1.8c0-1,0.8-1.8,1.8-1.8
	C68.8,50.5,69.6,51.3,69.6,52.3"/>
</svg>
