<?xml version="1.0" encoding="utf-8"?>
<!-- Generator: Adobe Illustrator 26.0.1, SVG Export Plug-In . SVG Version: 6.00 Build 0)  -->
<svg version="1.1" id="Layer_1" xmlns="http://www.w3.org/2000/svg" xmlns:xlink="http://www.w3.org/1999/xlink" x="0px" y="0px"
	 viewBox="0 0 120 120" style="enable-background:new 0 0 120 120;" xml:space="preserve">
<style type="text/css">
	.st0{fill:none;stroke:#080820;stroke-width:1;stroke-miterlimit:10.0003;}
	.st1{fill:#080820;}
</style>
<ellipse id="XMLID_2100_" class="st0" cx="59.7" cy="60.4" rx="26.7" ry="26.7"/>
<g id="XMLID_1213_">
	<rect id="XMLID_1215_" x="47.3" y="53.8" class="st1" width="5.7" height="18.5"/>
	<path id="XMLID_1214_" class="st1" d="M50.1,51.4c1.9,0,3.4-1.5,3.4-3.4s-1.5-3.4-3.4-3.4s-3.4,1.5-3.4,3.4
		C46.7,49.8,48.3,51.4,50.1,51.4z"/>
</g>
<path id="XMLID_1212_" class="st1" d="M62.2,62.6c0-2.6,1.2-4.2,3.5-4.2c2.1,0,3.1,1.5,3.1,4.2c0,2.7,0,9.7,0,9.7h5.7
	c0,0,0-6.8,0-11.7c0-5-2.8-7.4-6.7-7.4c-3.9,0-5.6,3.1-5.6,3.1v-2.5h-5.5v18.5h5.5C62.2,72.3,62.2,65.5,62.2,62.6z"/>
</svg>
