<?xml version="1.0" encoding="utf-8"?>
<!-- Generator: Adobe Illustrator 26.0.1, SVG Export Plug-In . SVG Version: 6.00 Build 0)  -->
<svg version="1.1" id="Layer_1" xmlns="http://www.w3.org/2000/svg" xmlns:xlink="http://www.w3.org/1999/xlink" x="0px" y="0px"
	 viewBox="0 0 42.2 37.2" style="enable-background:new 0 0 42.2 37.2;" xml:space="preserve">
<style type="text/css">
	.st0{display:none;fill:none;stroke:#080820;stroke-miterlimit:10.0003;}
	.st1{display:none;}
	.st2{display:inline;fill:#080820;}
	.st3{display:none;fill:#080820;}
	.st4{fill:#080820;}
</style>
<ellipse id="XMLID_2100_" class="st0" cx="24.9" cy="18.6" rx="26.7" ry="26.7"/>
<g id="XMLID_1213_" class="st1">
	<rect id="XMLID_1215_" x="12.5" y="12" class="st2" width="5.7" height="18.5"/>
	<path id="XMLID_1214_" class="st2" d="M15.3,9.6c1.9,0,3.4-1.5,3.4-3.4s-1.5-3.4-3.4-3.4s-3.4,1.5-3.4,3.4
		C11.9,8,13.5,9.6,15.3,9.6z"/>
</g>
<path id="XMLID_1212_" class="st3" d="M27.4,20.8c0-2.6,1.2-4.2,3.5-4.2c2.1,0,3.1,1.5,3.1,4.2c0,2.7,0,9.7,0,9.7h5.7
	c0,0,0-6.8,0-11.7c0-5-2.8-7.4-6.7-7.4c-3.9,0-5.6,3.1-5.6,3.1V12h-5.5v18.5h5.5C27.4,30.5,27.4,23.7,27.4,20.8z"/>
<path class="st4" d="M38,1.6L1.4,15.8c-1.5,0.7-2,2-0.4,2.7l9.4,3L33.1,7.4c1.2-0.9,2.5-0.6,1.4,0.3L15,25.4l-0.6,7.5
	c0.6,1.2,1.6,1.2,2.3,0.6l5.4-5.1l9.2,7c2.1,1.3,3.3,0.5,3.8-1.9l6.1-28.8C41.8,1.8,40.7,0.5,38,1.6z"/>
</svg>
