<?xml version="1.0" encoding="utf-8"?>
<!-- Generator: Adobe Illustrator 26.0.1, SVG Export Plug-In . SVG Version: 6.00 Build 0)  -->
<svg version="1.1" id="Layer_1" xmlns="http://www.w3.org/2000/svg" xmlns:xlink="http://www.w3.org/1999/xlink" x="0px" y="0px"
	 viewBox="0 0 120 120" style="enable-background:new 0 0 120 120;" xml:space="preserve">
<style type="text/css">
	.st0{display:none;}
	.st1{fill:none;stroke:#FFFFFF;stroke-miterlimit:10.0003;}
	.st2{display:none;fill:#FFFFFF;}
	.st3{display:inline;}
	.st4{clip-path:url(#SVGID_00000052804540361623884680000011173036709203062660_);fill:#FFFFFF;}
	.st5{fill:#FFFFFF;}
</style>
<rect x="-33.1" y="-13.8" class="st0" width="188.9" height="159.7"/>
<ellipse id="XMLID_2112_" class="st1" cx="59.7" cy="60.4" rx="26.7" ry="26.7"/>
<path id="XMLID_1065_" class="st2" d="M59.7,48c4.1,0,4.5,0,6.1,0.1c1.5,0.1,2.3,0.3,2.8,0.5c0.7,0.3,1.2,0.6,1.7,1.1s0.9,1,1.1,1.7
	c0.2,0.5,0.5,1.3,0.5,2.8c0.1,1.6,0.1,2.1,0.1,6.1s0,4.5-0.1,6.1c-0.1,1.5-0.3,2.3-0.5,2.8c-0.3,0.7-0.6,1.2-1.1,1.7s-1,0.9-1.7,1.1
	c-0.5,0.2-1.3,0.5-2.8,0.5c-1.6,0.1-2.1,0.1-6.1,0.1c-4.1,0-4.5,0-6.1-0.1c-1.5-0.1-2.3-0.3-2.8-0.5c-0.7-0.3-1.2-0.6-1.7-1.1
	s-0.9-1-1.1-1.7c-0.2-0.5-0.5-1.3-0.5-2.8c-0.1-1.6-0.1-2.1-0.1-6.1s0-4.5,0.1-6.1c0.1-1.5,0.3-2.3,0.5-2.8c0.3-0.7,0.6-1.2,1.1-1.7
	s1-0.9,1.7-1.1c0.5-0.2,1.3-0.5,2.8-0.5C55.1,48,55.6,48,59.7,48 M59.7,45.2c-4.1,0-4.6,0-6.3,0.1c-1.6,0.1-2.7,0.3-3.7,0.7
	s-1.8,0.9-2.7,1.8c-0.8,0.8-1.4,1.7-1.8,2.7c-0.4,1-0.6,2.1-0.7,3.7c-0.1,1.6-0.1,2.1-0.1,6.3c0,4.1,0,4.6,0.1,6.3
	c0.1,1.6,0.3,2.7,0.7,3.7s0.9,1.8,1.8,2.7c0.8,0.8,1.7,1.4,2.7,1.8s2.1,0.6,3.7,0.7c1.6,0.1,2.1,0.1,6.3,0.1c4.1,0,4.6,0,6.3-0.1
	c1.6-0.1,2.7-0.3,3.7-0.7c1-0.4,1.8-0.9,2.7-1.8c0.8-0.8,1.4-1.7,1.8-2.7s0.6-2.1,0.7-3.7s0.1-2.1,0.1-6.3c0-4.1,0-4.6-0.1-6.3
	c-0.1-1.6-0.3-2.7-0.7-3.7c-0.4-1-0.9-1.8-1.8-2.7c-0.8-0.8-1.7-1.4-2.7-1.8c-1-0.4-2.1-0.6-3.7-0.7C64.3,45.2,63.8,45.2,59.7,45.2"
	/>
<path id="XMLID_1053_" class="st2" d="M59.7,52.6c-4.3,0-7.8,3.5-7.8,7.8s3.5,7.8,7.8,7.8s7.8-3.5,7.8-7.8S64,52.6,59.7,52.6
	 M59.7,65.5c-2.8,0-5.1-2.3-5.1-5.1s2.3-5.1,5.1-5.1s5.1,2.3,5.1,5.1C64.7,63.2,62.5,65.5,59.7,65.5"/>
<path id="XMLID_1052_" class="st2" d="M69.6,52.3c0,1-0.8,1.8-1.8,1.8S66,53.3,66,52.3s0.8-1.8,1.8-1.8S69.6,51.3,69.6,52.3"/>
<g class="st0">
	<g class="st3">
		<g>
			<defs>
				<rect id="SVGID_1_" x="32.8" y="32.9" width="53.6" height="53.6"/>
			</defs>
			<clipPath id="SVGID_00000057129757744833597880000013913507372297806992_">
				<use xlink:href="#SVGID_1_"  style="overflow:visible;"/>
			</clipPath>
			<path style="clip-path:url(#SVGID_00000057129757744833597880000013913507372297806992_);fill:#FFFFFF;" d="M71.6,48.8
				c-2.3-1-4.6-1.8-7.1-2.2c-0.3,0.6-0.7,1.3-0.9,1.9c-2.6-0.4-5.3-0.4-7.9,0c-0.3-0.7-0.6-1.3-0.9-1.9c-2.5,0.4-4.9,1.2-7.1,2.2
				C43.2,55.5,42,62,42.6,68.5c2.7,2,5.6,3.5,8.7,4.4c0.7-1,1.3-2,1.9-3c-1-0.4-2-0.8-2.9-1.4c0.2-0.2,0.5-0.4,0.7-0.6
				c5.5,2.6,11.9,2.6,17.5,0c0.2,0.2,0.5,0.4,0.7,0.6c-0.9,0.6-1.9,1-3,1.4c0.5,1.1,1.2,2.1,1.9,3c3.1-1,6.1-2.4,8.7-4.4
				C77.5,61,75.5,54.5,71.6,48.8z M53.9,64.5c-1.7,0-3.1-1.6-3.1-3.5s1.4-3.5,3.1-3.5c1.7,0,3.1,1.6,3.1,3.5S55.7,64.5,53.9,64.5z
				 M65.4,64.5c-1.7,0-3.1-1.6-3.1-3.5s1.4-3.5,3.1-3.5s3.1,1.6,3.1,3.5S67.1,64.5,65.4,64.5z"/>
		</g>
	</g>
</g>
<g>
	<path class="st5" d="M73.9,73.6L63,57.8L61.8,56L54,44.7l-0.6-0.9h-9.6l2.3,3.4l10.3,15l1.2,1.8L66,76l0.6,0.9h9.6L73.9,73.6z
		 M67.8,74.8l-8.6-12.5L58,60.5L47.9,46h4.3l8.1,11.8l1.2,1.8L72,74.9L67.8,74.8L67.8,74.8z"/>
	<polygon class="st5" points="57.9,60.5 59.2,62.3 57.7,64 46.5,77 43.8,77 56.5,62.2 	"/>
	<polygon class="st5" points="75.1,43.8 63,57.8 61.6,59.5 60.3,57.7 61.8,56 69.9,46.5 72.3,43.8 	"/>
</g>
</svg>
